<svg id="visual" viewBox="0 0 1920 560" width="1920" height="560" xmlns="http://www.w3.org/2000/svg" xmlns:xlink="http://www.w3.org/1999/xlink" version="1.1"><rect x="0" y="0" width="1920" height="560" fill="#931C1C"></rect><path d="M0 290L274 235L549 197L823 155L1097 181L1371 174L1646 140L1920 208L1920 561L1646 561L1371 561L1097 561L823 561L549 561L274 561L0 561Z" fill="#f5730a"></path><path d="M0 228L274 305L549 239L823 239L1097 324L1371 190L1646 255L1920 261L1920 561L1646 561L1371 561L1097 561L823 561L549 561L274 561L0 561Z" fill="#e3630a"></path><path d="M0 292L274 329L549 344L823 272L1097 331L1371 303L1646 298L1920 327L1920 561L1646 561L1371 561L1097 561L823 561L549 561L274 561L0 561Z" fill="#d15308"></path><path d="M0 333L274 335L549 302L823 409L1097 327L1371 324L1646 340L1920 304L1920 561L1646 561L1371 561L1097 561L823 561L549 561L274 561L0 561Z" fill="#be4407"></path><path d="M0 436L274 414L549 385L823 405L1097 372L1371 389L1646 379L1920 418L1920 561L1646 561L1371 561L1097 561L823 561L549 561L274 561L0 561Z" fill="#ac3505"></path><path d="M0 431L274 456L549 440L823 415L1097 422L1371 433L1646 486L1920 418L1920 561L1646 561L1371 561L1097 561L823 561L549 561L274 561L0 561Z" fill="#992503"></path><path d="M0 523L274 469L549 523L823 499L1097 476L1371 486L1646 525L1920 478L1920 561L1646 561L1371 561L1097 561L823 561L549 561L274 561L0 561Z" fill="#871400"></path></svg>